<?xml version="1.0" encoding="utf-8"?>
<!-- Generator: Adobe Illustrator 16.0.0, SVG Export Plug-In . SVG Version: 6.00 Build 0)  -->
<!DOCTYPE svg PUBLIC "-//W3C//DTD SVG 1.1//EN" "http://www.w3.org/Graphics/SVG/1.1/DTD/svg11.dtd">
<svg version="1.1" id="圖層_1" xmlns="http://www.w3.org/2000/svg" xmlns:xlink="http://www.w3.org/1999/xlink" x="0px" y="0px"
	 width="800px" height="400px" viewBox="0 0 800 400" enable-background="new 0 0 800 400" xml:space="preserve">
<g>
	<g>
		<path fill="none" stroke="#FFFFFF" stroke-width="3" d="M22.859,119.593h25.603v30.773h7.125v22.701h-7.125v32.603H22.859V119.593
			 M85.541,119.593v86.077H59.938v-86.077H85.541z"/>
		<path fill="none" stroke="#FFFFFF" stroke-width="3" d="M127.35,166.888h11.981c-0.841-4.666-3.468-7-7.882-7
			c-2.943,0-5.339,1.251-7.189,3.752c-1.851,2.501-2.775,5.707-2.775,9.617c0,4.078,0.893,7.377,2.68,9.9
			c1.787,2.523,4.13,3.784,7.031,3.784c2.354,0,4.624-1.177,6.81-3.531l13.432,16.143c-6.265,4.918-13.222,7.377-20.873,7.377
			c-9.333,0-17.174-3.132-23.521-9.396c-6.349-6.264-9.521-14.021-9.521-23.269c0-9.207,3.205-16.984,9.616-23.333
			c6.411-6.347,14.283-9.522,23.616-9.522c9.122,0,16.783,3.101,22.985,9.301c6.201,6.202,9.302,13.842,9.302,22.922
			c0,0.925-0.085,2.396-0.252,4.414h-35.755c-0.547-1.807-0.82-3.469-0.82-4.982C126.214,170.966,126.593,168.906,127.35,166.888"/>
		<path fill="none" stroke="#FFFFFF" stroke-width="3" d="M172.563,119.593h23.584v86.077h-23.584V119.593"/>
		<path fill="none" stroke="#FFFFFF" stroke-width="3" d="M209.958,119.593h23.584v86.077h-23.584V119.593"/>
		<path fill="none" stroke="#FFFFFF" stroke-width="3" d="M277.18,141.475c8.912,0,16.553,3.207,22.922,9.617
			c6.37,6.411,9.554,14.094,9.554,23.048c0,9.081-3.227,16.816-9.68,23.206c-6.454,6.392-14.242,9.585-23.364,9.585
			c-9.123,0-16.922-3.205-23.395-9.616c-6.474-6.411-9.711-14.136-9.711-23.175c0-9.207,3.237-16.953,9.711-23.237
			C259.69,144.618,267.679,141.475,277.18,141.475 M276.549,164.744c-2.522,0-4.667,0.915-6.432,2.744
			c-1.766,1.829-2.648,4.067-2.648,6.715c0,2.607,0.893,4.835,2.68,6.685c1.787,1.85,3.919,2.775,6.4,2.775
			c2.522,0,4.676-0.925,6.464-2.775c1.787-1.85,2.68-4.077,2.68-6.685c0-2.648-0.882-4.887-2.648-6.715
			C281.279,165.658,279.113,164.744,276.549,164.744"/>
		<path fill="none" stroke="#FFFFFF" stroke-width="3" d="M351.779,119.593h25.603v55.997c0,2.774,0.221,4.604,0.662,5.486
			c0.443,0.883,1.335,1.324,2.682,1.324c2.521,0,3.783-2.122,3.783-6.369v-56.439h25.603v55.997c0,2.691,0.229,4.499,0.692,5.423
			c0.463,0.925,1.366,1.387,2.713,1.387c2.521,0,3.782-2.271,3.782-6.811v-55.997H442.9v61.988c0,7.736-2.333,14.042-6.998,18.918
			c-4.667,4.876-10.701,7.314-18.1,7.314c-8.912,0-15.723-4.057-20.431-12.17c-2.902,4.373-6.013,7.495-9.333,9.365
			c-3.321,1.87-7.419,2.806-12.296,2.806c-7.735,0-13.663-2.438-17.783-7.314c-4.12-4.877-6.18-11.897-6.18-21.063V119.593"/>
		<path fill="none" stroke="#FFFFFF" stroke-width="3" d="M486.477,141.475c8.911,0,16.553,3.207,22.922,9.617
			c6.368,6.411,9.553,14.094,9.553,23.048c0,9.081-3.227,16.816-9.68,23.206c-6.453,6.392-14.241,9.585-23.362,9.585
			c-9.124,0-16.923-3.205-23.396-9.616s-9.711-14.136-9.711-23.175c0-9.207,3.237-16.953,9.711-23.237
			C468.986,144.618,476.975,141.475,486.477,141.475 M485.846,164.744c-2.523,0-4.667,0.915-6.432,2.744
			c-1.767,1.829-2.649,4.067-2.649,6.715c0,2.607,0.893,4.835,2.681,6.685c1.786,1.85,3.919,2.775,6.4,2.775
			c2.522,0,4.676-0.925,6.464-2.775c1.785-1.85,2.68-4.077,2.68-6.685c0-2.648-0.884-4.887-2.648-6.715
			C490.574,165.658,488.409,164.744,485.846,164.744"/>
		<path fill="none" stroke="#FFFFFF" stroke-width="3" d="M563.283,142.168v25.224c-1.64-0.925-3.133-1.388-4.477-1.388
			c-4.289,0-6.434,3.279-6.434,9.837v29.828h-23.584v-34.368c0-9.08,2.48-16.321,7.441-21.724c4.96-5.402,11.581-8.104,19.863-8.104
			C557.944,141.475,560.34,141.706,563.283,142.168"/>
		<path fill="none" stroke="#FFFFFF" stroke-width="3" d="M570.219,119.593h23.585v86.077h-23.585V119.593"/>
		<path fill="none" stroke="#FFFFFF" stroke-width="3" d="M646.332,119.593h23.584v52.403c0,9.627-2.522,17.467-7.566,23.521
			c-2.901,3.489-6.591,6.264-11.066,8.324c-4.478,2.059-9.071,3.09-13.78,3.09c-9.374,0-17.277-3.153-23.71-9.459
			c-6.432-6.306-9.647-14.04-9.647-23.206c0-8.87,3.194-16.543,9.585-23.017c6.39-6.473,13.957-9.711,22.701-9.711
			c1.387,0,3.489,0.126,6.306,0.378v25.98c-1.935-1.513-3.868-2.27-5.801-2.27c-2.439,0-4.53,0.893-6.275,2.68
			c-1.744,1.787-2.616,3.941-2.616,6.464c0,2.439,0.903,4.531,2.711,6.274c1.808,1.746,3.973,2.617,6.496,2.617
			c6.054,0,9.08-4.183,9.08-12.55V119.593"/>
		<path fill="none" stroke="#FFFFFF" stroke-width="3" d="M703.275,177.419c4.119,0,7.661,1.492,10.625,4.478
			c2.965,2.985,4.446,6.537,4.446,10.657c0,4.121-1.473,7.62-4.415,10.499c-2.942,2.881-6.494,4.32-10.656,4.32
			c-4.331,0-7.894-1.397-10.689-4.192c-2.796-2.797-4.193-6.359-4.193-10.689c0-4.204,1.451-7.766,4.352-10.689
			C695.645,178.88,699.154,177.419,703.275,177.419 M691.293,119.593h24.153l-0.442,53.412h-22.386L691.293,119.593"/>
		<path fill="none" stroke="#FFFFFF" stroke-width="3" d="M759.021,177.419c4.119,0,7.661,1.492,10.625,4.478
			c2.964,2.985,4.446,6.537,4.446,10.657c0,4.121-1.473,7.62-4.415,10.499c-2.942,2.881-6.494,4.32-10.656,4.32
			c-4.331,0-7.894-1.397-10.689-4.192c-2.797-2.797-4.193-6.359-4.193-10.689c0-4.204,1.451-7.766,4.352-10.689
			C751.391,178.88,754.9,177.419,759.021,177.419 M747.039,119.593h24.153l-0.442,53.412h-22.386L747.039,119.593"/>
	</g>
	<g>
		<path fill="none" stroke="#FFFFFF" stroke-width="3" d="M67.274,265.368H55.125V250.36c0-1.711-0.417-3.075-1.25-4.093
			c-0.834-1.018-1.955-1.527-3.362-1.527c-1.277,0-2.382,0.466-3.313,1.397c-0.931,0.931-1.397,2.035-1.397,3.313
			c0,1.342,0.422,2.446,1.267,3.313c0.844,0.866,1.917,1.3,3.216,1.3c1.061,0,2.046-0.281,2.956-0.845v12.571
			c-0.997,0.173-1.906,0.26-2.729,0.26c-4.873,0-8.933-1.603-12.181-4.808s-4.873-7.222-4.873-12.052
			c0-4.699,1.641-8.684,4.921-11.953c3.281-3.271,7.271-4.905,11.97-4.905c5.241,0,9.372,1.532,12.393,4.597
			c3.021,3.063,4.531,7.249,4.531,12.555V265.368"/>
		<path fill="none" stroke="#FFFFFF" stroke-width="3" d="M90.987,221.027h13.188v28.846c0,1.43,0.114,2.371,0.341,2.826
			c0.227,0.455,0.688,0.682,1.38,0.682c1.299,0,1.949-1.093,1.949-3.28v-29.073h13.188v28.846c0,1.386,0.119,2.317,0.357,2.794
			c0.238,0.476,0.704,0.714,1.397,0.714c1.299,0,1.949-1.169,1.949-3.508v-28.846h13.188v31.932c0,3.984-1.202,7.233-3.605,9.745
			c-2.404,2.512-5.512,3.769-9.323,3.769c-4.591,0-8.099-2.09-10.524-6.27c-1.494,2.252-3.097,3.859-4.808,4.823
			s-3.822,1.446-6.334,1.446c-3.984,0-7.038-1.257-9.16-3.769c-2.123-2.512-3.184-6.129-3.184-10.85V221.027"/>
		<path fill="none" stroke="#FFFFFF" stroke-width="3" d="M158.423,251.14c-0.281-0.931-0.422-1.786-0.422-2.566
			c0-1.082,0.195-2.144,0.585-3.183h6.172c-0.433-2.404-1.787-3.606-4.061-3.606c-1.516,0-2.75,0.645-3.703,1.934
			c-0.953,1.288-1.429,2.939-1.429,4.953c0,2.101,0.46,3.801,1.38,5.101c0.92,1.299,2.128,1.948,3.622,1.948
			c1.212,0,2.382-0.606,3.508-1.818l6.919,8.315c-3.227,2.534-6.811,3.801-10.752,3.801c-4.808,0-8.847-1.613-12.117-4.84
			c-3.27-3.228-4.905-7.223-4.905-11.987c0-4.742,1.651-8.748,4.954-12.019c3.303-3.27,7.357-4.905,12.165-4.905
			c4.699,0,8.646,1.598,11.84,4.792s4.792,7.13,4.792,11.808c0,0.477-0.043,1.234-0.13,2.273H158.423"/>
		<path fill="none" stroke="#FFFFFF" stroke-width="3" d="M181.162,221.027h12.149v26.539c0,4.31,1.548,6.465,4.645,6.465
			c1.321,0,2.441-0.449,3.362-1.349c0.92-0.898,1.381-1.986,1.381-3.265c0-1.32-0.433-2.431-1.299-3.329
			c-0.867-0.898-1.928-1.349-3.184-1.349c-0.888,0-1.906,0.391-3.053,1.17v-13.384c1.429-0.13,2.512-0.194,3.248-0.194
			c4.569,0,8.484,1.646,11.743,4.938c3.259,3.292,4.889,7.255,4.889,11.889c0,4.743-1.657,8.738-4.97,11.986
			c-3.313,3.249-7.385,4.873-12.214,4.873c-2.425,0-4.791-0.53-7.098-1.592c-2.306-1.062-4.207-2.49-5.701-4.288
			c-2.599-3.118-3.898-7.157-3.898-12.116V221.027"/>
		<path fill="none" stroke="#FFFFFF" stroke-width="3" d="M221.279,265.368v-44.341h17.184c7.536,0,13.438,1.711,17.704,5.133
			c5.067,4.093,7.601,9.647,7.601,16.664c0,6.713-2.166,12.192-6.497,16.437s-9.908,6.367-16.729,6.367
			c-0.801,0-2.111-0.044-3.931-0.13v-13.026h2.111c7.688,0,11.532-3.216,11.532-9.647c0-6.042-3.779-9.063-11.336-9.063h-4.451
			v31.607H221.279"/>
		<path fill="none" stroke="#FFFFFF" stroke-width="3" d="M282.478,251.14c-0.281-0.931-0.422-1.786-0.422-2.566
			c0-1.082,0.195-2.144,0.584-3.183h6.172c-0.433-2.404-1.787-3.606-4.061-3.606c-1.516,0-2.75,0.645-3.703,1.934
			c-0.953,1.288-1.429,2.939-1.429,4.953c0,2.101,0.46,3.801,1.381,5.101c0.92,1.299,2.127,1.948,3.622,1.948
			c1.213,0,2.382-0.606,3.508-1.818l6.919,8.315c-3.227,2.534-6.811,3.801-10.752,3.801c-4.808,0-8.846-1.613-12.116-4.84
			c-3.27-3.228-4.905-7.223-4.905-11.987c0-4.742,1.651-8.748,4.954-12.019c3.303-3.27,7.358-4.905,12.166-4.905
			c4.699,0,8.646,1.598,11.84,4.792c3.194,3.194,4.792,7.13,4.792,11.808c0,0.477-0.043,1.234-0.13,2.273H282.478"/>
		<path fill="none" stroke="#FFFFFF" stroke-width="3" d="M326.233,233.437v12.799c-1.711,0-2.886,0.319-3.524,0.958
			c-0.639,0.639-1.045,1.9-1.218,3.784c-0.563,6.259-2.989,10.676-7.276,13.253c-2.274,1.343-5.5,2.015-9.68,2.015h-1.689v-12.864
			h0.552c1.949,0,3.34-0.405,4.174-1.218c0.834-0.813,1.315-2.236,1.446-4.271c0.173-3.313,0.481-5.642,0.926-6.984
			c0.444-1.343,1.348-2.674,2.712-3.995c2.382-2.317,5.685-3.476,9.907-3.476H326.233"/>
		<path fill="none" stroke="#FFFFFF" stroke-width="3" d="M330.196,232.981h12.149v32.387h-12.149V232.981 M336.303,218.526
			c1.646,0,3.07,0.579,4.271,1.738c1.202,1.158,1.803,2.528,1.803,4.108c0,1.689-0.568,3.075-1.705,4.158
			c-1.137,1.083-2.593,1.624-4.369,1.624s-3.232-0.541-4.369-1.624s-1.706-2.469-1.706-4.158c0-1.58,0.601-2.95,1.803-4.108
			C333.233,219.105,334.657,218.526,336.303,218.526"/>
		<path fill="none" stroke="#FFFFFF" stroke-width="3" d="M366.772,252.017v11.143c-1.754,0.649-3.432,0.975-5.035,0.975
			c-3.92,0-7.238-1.483-9.956-4.45c-2.718-2.968-4.077-6.595-4.077-10.883c0-4.634,1.635-8.543,4.905-11.727
			s7.287-4.774,12.051-4.774c2.534,0,4.959,0.509,7.276,1.526c2.317,1.018,4.136,2.382,5.458,4.093
			c2.208,2.837,3.313,6.951,3.313,12.344v10.655c0,5.781-1.64,10.476-4.921,14.081c-3.281,3.605-7.553,5.408-12.815,5.408
			c-1.603,0-3.627-0.4-6.075-1.201v-11.045c1.581,0.866,3.184,1.3,4.808,1.3c2.188,0,3.876-0.721,5.067-2.16
			c1.191-1.44,1.787-3.503,1.787-6.188v-12.182c0-3.399-1.375-5.1-4.125-5.1c-1.169,0-2.193,0.449-3.07,1.348
			c-0.877,0.899-1.315,1.934-1.315,3.103c0,1.234,0.417,2.263,1.25,3.086c0.833,0.823,1.868,1.234,3.102,1.234
			C365.225,252.602,366.015,252.407,366.772,252.017"/>
		<path fill="none" stroke="#FFFFFF" stroke-width="3" d="M387.854,265.368v-18.062c0-4.223,1.397-7.779,4.19-10.671
			c2.793-2.891,6.215-4.336,10.265-4.336c4.635,0,8.349,1.678,11.142,5.034c2.188,2.621,3.281,6.27,3.281,10.947v17.087h-12.148
			v-18.289c0-1.862-0.77-2.793-2.307-2.793c-1.516,0-2.274,0.931-2.274,2.793v18.289H387.854"/>
		<path fill="none" stroke="#FFFFFF" stroke-width="3" d="M437.229,251.14c-0.281-0.931-0.422-1.786-0.422-2.566
			c0-1.082,0.194-2.144,0.585-3.183h6.172c-0.434-2.404-1.787-3.606-4.061-3.606c-1.517,0-2.751,0.645-3.703,1.934
			c-0.953,1.288-1.43,2.939-1.43,4.953c0,2.101,0.46,3.801,1.381,5.101c0.92,1.299,2.127,1.948,3.622,1.948
			c1.212,0,2.382-0.606,3.508-1.818l6.919,8.315c-3.227,2.534-6.811,3.801-10.752,3.801c-4.808,0-8.847-1.613-12.116-4.84
			c-3.271-3.228-4.905-7.223-4.905-11.987c0-4.742,1.651-8.748,4.954-12.019c3.302-3.27,7.357-4.905,12.165-4.905
			c4.699,0,8.646,1.598,11.84,4.792s4.791,7.13,4.791,11.808c0,0.477-0.043,1.234-0.13,2.273H437.229"/>
		<path fill="none" stroke="#FFFFFF" stroke-width="3" d="M478.451,232.656v12.994c-0.845-0.477-1.613-0.715-2.307-0.715
			c-2.208,0-3.313,1.689-3.313,5.067v15.365h-12.149v-17.704c0-4.678,1.278-8.408,3.833-11.19c2.556-2.783,5.967-4.174,10.232-4.174
			C475.701,232.3,476.936,232.419,478.451,232.656"/>
		<path fill="none" stroke="#FFFFFF" stroke-width="3" d="M490.697,235.386c-2.165-0.13-3.93-0.894-5.295-2.29
			c-1.364-1.397-2.046-3.135-2.046-5.214c0-2.188,0.73-4.022,2.192-5.506s3.275-2.226,5.441-2.226c2.101,0,3.865,0.747,5.295,2.241
			c1.429,1.494,2.144,3.346,2.144,5.555c0,2.296-0.698,4.331-2.095,6.107c-1.397,1.775-3.275,3.01-5.637,3.703V235.386"/>
		<path fill="none" stroke="#FFFFFF" stroke-width="3" d="M527.111,233.437v12.799c-1.71,0-2.885,0.319-3.524,0.958
			c-0.639,0.639-1.045,1.9-1.218,3.784c-0.563,6.259-2.988,10.676-7.276,13.253c-2.273,1.343-5.501,2.015-9.68,2.015h-1.689v-12.864
			h0.552c1.949,0,3.341-0.405,4.175-1.218c0.833-0.813,1.315-2.236,1.445-4.271c0.173-3.313,0.481-5.642,0.926-6.984
			s1.348-2.674,2.712-3.995c2.383-2.317,5.686-3.476,9.908-3.476H527.111"/>
		<path fill="none" stroke="#FFFFFF" stroke-width="3" d="M548.616,265.368v-44.341h16.924c5.154,0,9.149,1.278,11.986,3.833
			c3.162,2.858,4.742,6.486,4.742,10.882c0,4.483-1.96,8.262-5.879,11.337l7.601,18.289h-13.838l-6.399-14.293v-11.402h1.04
			c2.771,0,4.158-1.19,4.158-3.573c0-2.101-1.604-3.15-4.808-3.15h-2.339v32.419H548.616"/>
		<path fill="none" stroke="#FFFFFF" stroke-width="3" d="M600.914,251.14c-0.281-0.931-0.422-1.786-0.422-2.566
			c0-1.082,0.195-2.144,0.585-3.183h6.172c-0.434-2.404-1.787-3.606-4.061-3.606c-1.516,0-2.75,0.645-3.703,1.934
			c-0.953,1.288-1.43,2.939-1.43,4.953c0,2.101,0.461,3.801,1.381,5.101c0.92,1.299,2.128,1.948,3.622,1.948
			c1.213,0,2.382-0.606,3.508-1.818l6.919,8.315c-3.227,2.534-6.811,3.801-10.752,3.801c-4.808,0-8.846-1.613-12.116-4.84
			c-3.27-3.228-4.905-7.223-4.905-11.987c0-4.742,1.651-8.748,4.954-12.019c3.303-3.27,7.357-4.905,12.165-4.905
			c4.699,0,8.646,1.598,11.84,4.792c3.194,3.194,4.792,7.13,4.792,11.808c0,0.477-0.044,1.234-0.13,2.273H600.914"/>
		<path fill="none" stroke="#FFFFFF" stroke-width="3" d="M644.67,233.437v12.799c-1.711,0-2.886,0.319-3.524,0.958
			s-1.045,1.9-1.218,3.784c-0.563,6.259-2.989,10.676-7.276,13.253c-2.274,1.343-5.501,2.015-9.681,2.015h-1.689v-12.864h0.553
			c1.949,0,3.341-0.405,4.174-1.218c0.834-0.813,1.316-2.236,1.445-4.271c0.174-3.313,0.482-5.642,0.926-6.984
			c0.444-1.343,1.349-2.674,2.713-3.995c2.382-2.317,5.685-3.476,9.907-3.476H644.67"/>
		<path fill="none" stroke="#FFFFFF" stroke-width="3" d="M648.633,233.437h12.149v18.288c0,1.841,0.769,2.761,2.306,2.761
			c1.517,0,2.274-0.92,2.274-2.761v-18.288h12.148v18.061c0,4.201-1.396,7.747-4.19,10.639c-2.793,2.891-6.215,4.337-10.265,4.337
			c-4.612,0-8.326-1.679-11.142-5.035c-2.188-2.621-3.281-6.259-3.281-10.915V233.437"/>
		<path fill="none" stroke="#FFFFFF" stroke-width="3" d="M684.592,265.368v-19.945c0-3.639,1.224-6.729,3.671-9.274
			c2.447-2.544,5.414-3.816,8.9-3.816c3.595,0,6.822,1.516,9.681,4.548c3.184-3.032,6.366-4.548,9.55-4.548
			c4.05,0,7.298,1.473,9.745,4.418c1.928,2.295,2.892,5.641,2.892,10.037v18.581h-12.149v-17.477c0-1.343-0.141-2.273-0.422-2.794
			c-0.282-0.52-0.791-0.779-1.527-0.779c-1.364,0-2.046,1.202-2.046,3.605v17.444h-12.149v-17.477c0-1.343-0.146-2.273-0.438-2.794
			c-0.292-0.52-0.807-0.779-1.543-0.779c-1.343,0-2.014,1.202-2.014,3.605v17.444H684.592"/>
		<path fill="none" stroke="#FFFFFF" stroke-width="3" d="M749.56,251.14c-0.281-0.931-0.423-1.786-0.423-2.566
			c0-1.082,0.195-2.144,0.585-3.183h6.172c-0.433-2.404-1.786-3.606-4.061-3.606c-1.516,0-2.75,0.645-3.703,1.934
			c-0.952,1.288-1.429,2.939-1.429,4.953c0,2.101,0.46,3.801,1.38,5.101c0.921,1.299,2.128,1.948,3.622,1.948
			c1.213,0,2.383-0.606,3.509-1.818l6.919,8.315c-3.227,2.534-6.811,3.801-10.752,3.801c-4.808,0-8.847-1.613-12.117-4.84
			c-3.27-3.228-4.904-7.223-4.904-11.987c0-4.742,1.651-8.748,4.953-12.019c3.303-3.27,7.357-4.905,12.165-4.905
			c4.7,0,8.646,1.598,11.841,4.792s4.791,7.13,4.791,11.808c0,0.477-0.043,1.234-0.13,2.273H749.56"/>
	</g>
</g>
</svg>
